<svg xmlns="http://www.w3.org/2000/svg" version="1.1" xmlns:xlink="http://www.w3.org/1999/xlink" xmlns:svgjs="http://svgjs.dev/svgjs" viewBox="0 0 14.312094996923467 3.254155058454076"><g transform="matrix(1,0,0,1,2.8462956899708223,0.5878962792270379)"><rect width="14.312094996923467" height="3.254155058454076" x="-2.8462956899708227" y="-0.5878962792270378" fill="#ffffff"></rect><g><path d=" M 0.195 1.068 L 0.195 0.018000000000000016 L 0.54 0.018000000000000016 Q 0.6645 0.018000000000000016 0.768 0.05774999999999997 Q 0.8715 0.09750000000000003 0.94575 0.16725 Q 1.02 0.237 1.06125 0.3330000000000001 Q 1.1025 0.42900000000000005 1.1025 0.54 Q 1.1025 0.6555 1.05975 0.7522500000000001 Q 1.0170000000000001 0.8490000000000001 0.94275 0.9195000000000001 Q 0.8685 0.9900000000000001 0.7695 1.0290000000000001 Q 0.6705 1.068 0.558 1.068 L 0.195 1.068 Z M 0.3315 1.002 L 0.4965 1.002 Q 0.6195 1.002 0.70575 0.9607500000000001 Q 0.792 0.9195000000000001 0.8475 0.8535 Q 0.903 0.7875000000000001 0.9285 0.7057500000000001 Q 0.9540000000000001 0.6240000000000001 0.9540000000000001 0.543 Q 0.9540000000000001 0.45300000000000007 0.924 0.36975 Q 0.894 0.2865000000000001 0.83625 0.22275 Q 0.7785 0.15900000000000003 0.6930000000000001 0.12150000000000005 Q 0.6075 0.08400000000000007 0.4965 0.08400000000000007 L 0.3315 0.08400000000000007 L 0.3315 1.002 Z M 1.342430419921875 0.018000000000000016 L 1.342430419921875 1.068 L 1.4789304199218751 1.068 L 1.4789304199218751 0.6045 L 1.5449304199218752 0.6045 Q 1.5869304199218752 0.6045 1.6146804199218752 0.6120000000000001 Q 1.642430419921875 0.6195 1.664930419921875 0.6375000000000001 Q 1.687430419921875 0.6555 1.706930419921875 0.684 Q 1.7264304199218752 0.7125000000000001 1.753430419921875 0.7545000000000001 L 1.8719304199218751 0.93 Q 1.894430419921875 0.9645 1.9161804199218753 0.9930000000000001 Q 1.9379304199218752 1.0215 1.9634304199218753 1.04175 Q 1.9889304199218751 1.062 2.0211804199218752 1.074 Q 2.053430419921875 1.086 2.098430419921875 1.086 Q 2.131430419921875 1.086 2.152430419921875 1.083 Q 2.1734304199218752 1.08 2.194430419921875 1.068 L 2.194430419921875 1.0125 Q 2.1869304199218753 1.014 2.179430419921875 1.01475 Q 2.171930419921875 1.0155 2.1644304199218753 1.0155 Q 2.132930419921875 1.0155 2.108930419921875 1.0065 Q 2.084930419921875 0.9975 2.063930419921875 0.9802500000000001 Q 2.042930419921875 0.9630000000000001 2.0234304199218753 0.93825 Q 2.003930419921875 0.9135000000000001 1.9829304199218751 0.8820000000000001 Q 1.9199304199218752 0.7905 1.885430419921875 0.7357500000000001 Q 1.850930419921875 0.681 1.8306804199218751 0.651 Q 1.8104304199218753 0.621 1.7976804199218752 0.6075 Q 1.7849304199218752 0.5940000000000001 1.7669304199218752 0.5850000000000001 L 1.7519304199218753 0.5775000000000001 L 1.7519304199218753 0.5715000000000001 Q 1.823930419921875 0.5670000000000001 1.875680419921875 0.54 Q 1.9274304199218752 0.513 1.9604304199218752 0.47250000000000003 Q 1.993430419921875 0.43200000000000005 2.008430419921875 0.38475000000000004 Q 2.0234304199218753 0.3375 2.0234304199218753 0.2925000000000001 Q 2.0234304199218753 0.252 2.007680419921875 0.20400000000000007 Q 1.991930419921875 0.15600000000000003 1.9536804199218751 0.11475000000000002 Q 1.9154304199218752 0.07350000000000001 1.8494304199218752 0.04574999999999996 Q 1.7834304199218751 0.018000000000000016 1.682930419921875 0.018000000000000016 L 1.342430419921875 0.018000000000000016 Z M 1.4789304199218751 0.08400000000000007 L 1.630430419921875 0.08400000000000007 Q 1.687430419921875 0.08400000000000007 1.733180419921875 0.10050000000000003 Q 1.7789304199218752 0.11699999999999999 1.811930419921875 0.14625 Q 1.8449304199218752 0.1755 1.862180419921875 0.21600000000000008 Q 1.8794304199218752 0.25650000000000006 1.8794304199218752 0.3045 Q 1.8794304199218752 0.3450000000000001 1.863680419921875 0.3862500000000001 Q 1.8479304199218751 0.4275000000000001 1.816430419921875 0.46125000000000005 Q 1.7849304199218752 0.495 1.7391804199218752 0.516 Q 1.6934304199218753 0.537 1.6334304199218752 0.537 L 1.4789304199218751 0.537 L 1.4789304199218751 0.08400000000000007 Z M 2.4343652343750004 0.018000000000000016 L 2.4343652343750004 1.068 L 3.1123652343750003 1.068 L 3.1123652343750003 0.9855 L 2.5708652343750003 0.9855 L 2.5708652343750003 0.546 L 3.035865234375 0.546 L 3.035865234375 0.4770000000000001 L 2.5708652343750003 0.4770000000000001 L 2.5708652343750003 0.10050000000000003 L 3.1123652343750003 0.10050000000000003 L 3.1123652343750003 0.018000000000000016 L 2.4343652343750004 0.018000000000000016 Z M 3.9358498535156254 0.7590000000000001 L 4.079849853515626 1.068 L 4.225349853515626 1.068 L 3.7363498535156254 0.018000000000000016 L 3.6613498535156253 0.018000000000000016 L 3.2173498535156253 1.068 L 3.2863498535156253 1.068 L 3.4183498535156254 0.7590000000000001 L 3.9358498535156254 0.7590000000000001 Z M 3.904349853515625 0.6915 L 3.4468498535156256 0.6915 L 3.6628498535156253 0.18600000000000005 L 3.6688498535156255 0.18600000000000005 L 3.904349853515625 0.6915 Z M 4.5673417968750005 0.018000000000000016 L 4.465341796875 0.018000000000000016 L 4.465341796875 1.068 L 4.531341796875001 1.068 L 4.531341796875001 0.21150000000000002 L 4.537341796875 0.21150000000000002 L 5.000841796875001 1.086 L 5.027841796875 1.086 L 5.501841796875 0.21750000000000003 L 5.507841796875001 0.21750000000000003 L 5.507841796875001 1.068 L 5.6443417968750005 1.068 L 5.6443417968750005 0.018000000000000016 L 5.540841796875 0.018000000000000016 L 5.054841796875 0.9195000000000001 L 5.048841796875001 0.9195000000000001 L 4.5673417968750005 0.018000000000000016 Z M 5.884251708984376 0.018000000000000016 L 6.256251708984376 1.068 L 6.346251708984376 1.068 L 6.632751708984376 0.24750000000000005 L 6.640251708984376 0.24750000000000005 L 6.917751708984376 1.068 L 7.006251708984376 1.068 L 7.378251708984376 0.018000000000000016 L 7.309251708984376 0.018000000000000016 L 6.998751708984376 0.894 L 6.992751708984376 0.894 L 6.700251708984376 0.018000000000000016 L 6.635751708984376 0.018000000000000016 L 6.337251708984376 0.8895000000000001 L 6.331251708984376 0.8895000000000001 L 6.022251708984376 0.018000000000000016 L 5.884251708984376 0.018000000000000016 Z M 7.513205566406252 0.543 Q 7.513205566406252 0.627 7.545455566406251 0.7222500000000001 Q 7.577705566406252 0.8175000000000001 7.6467055664062515 0.8985000000000001 Q 7.7157055664062515 0.9795 7.822205566406252 1.03275 Q 7.928705566406252 1.086 8.077205566406251 1.086 Q 8.177705566406251 1.086 8.259455566406253 1.06125 Q 8.341205566406252 1.0365 8.406455566406251 0.9945 Q 8.471705566406252 0.9525 8.519705566406252 0.89775 Q 8.567705566406252 0.8430000000000001 8.598455566406251 0.7822500000000001 Q 8.629205566406252 0.7215 8.644955566406251 0.66 Q 8.660705566406252 0.5985 8.660705566406252 0.543 Q 8.660705566406252 0.4590000000000001 8.626205566406252 0.36375 Q 8.591705566406251 0.26850000000000007 8.519705566406252 0.1875 Q 8.447705566406253 0.10650000000000004 8.337455566406252 0.05325000000000002 Q 8.227205566406251 0 8.077205566406251 0 Q 7.928705566406252 0 7.822205566406252 0.05249999999999999 Q 7.7157055664062515 0.1050000000000001 7.6467055664062515 0.18525000000000003 Q 7.577705566406252 0.26550000000000007 7.545455566406251 0.36150000000000004 Q 7.513205566406252 0.4575 7.513205566406252 0.543 Z M 7.660205566406252 0.543 Q 7.660205566406252 0.43800000000000006 7.6924555664062515 0.35025000000000006 Q 7.724705566406252 0.26250000000000007 7.780955566406251 0.1995 Q 7.837205566406252 0.13650000000000007 7.913705566406252 0.10125000000000006 Q 7.990205566406251 0.06600000000000006 8.080205566406251 0.06600000000000006 Q 8.168705566406251 0.06600000000000006 8.247455566406252 0.10125000000000006 Q 8.326205566406252 0.13650000000000007 8.385455566406252 0.1995 Q 8.444705566406252 0.26250000000000007 8.479205566406252 0.35025000000000006 Q 8.513705566406252 0.43800000000000006 8.513705566406252 0.543 Q 8.513705566406252 0.6480000000000001 8.479205566406252 0.7357500000000001 Q 8.444705566406252 0.8235000000000001 8.385455566406252 0.8865000000000001 Q 8.326205566406252 0.9495 8.247455566406252 0.98475 Q 8.168705566406251 1.02 8.080205566406251 1.02 Q 7.990205566406251 1.02 7.913705566406252 0.98475 Q 7.837205566406252 0.9495 7.780955566406251 0.8865000000000001 Q 7.724705566406252 0.8235000000000001 7.6924555664062515 0.7357500000000001 Q 7.660205566406252 0.6480000000000001 7.660205566406252 0.543 Z M 8.930690917968752 0.018000000000000016 L 8.930690917968752 1.068 L 9.067190917968752 1.068 L 9.067190917968752 0.6045 L 9.133190917968752 0.6045 Q 9.175190917968752 0.6045 9.202940917968752 0.6120000000000001 Q 9.230690917968753 0.6195 9.253190917968752 0.6375000000000001 Q 9.275690917968753 0.6555 9.295190917968752 0.684 Q 9.314690917968752 0.7125000000000001 9.341690917968752 0.7545000000000001 L 9.460190917968752 0.93 Q 9.482690917968752 0.9645 9.504440917968752 0.9930000000000001 Q 9.526190917968751 1.0215 9.551690917968752 1.04175 Q 9.577190917968752 1.062 9.609440917968753 1.074 Q 9.641690917968752 1.086 9.686690917968752 1.086 Q 9.719690917968752 1.086 9.740690917968752 1.083 Q 9.761690917968753 1.08 9.782690917968752 1.068 L 9.782690917968752 1.0125 Q 9.775190917968752 1.014 9.767690917968752 1.01475 Q 9.760190917968753 1.0155 9.752690917968753 1.0155 Q 9.721190917968752 1.0155 9.697190917968753 1.0065 Q 9.673190917968752 0.9975 9.652190917968753 0.9802500000000001 Q 9.631190917968752 0.9630000000000001 9.611690917968753 0.93825 Q 9.592190917968752 0.9135000000000001 9.571190917968753 0.8820000000000001 Q 9.508190917968752 0.7905 9.473690917968753 0.7357500000000001 Q 9.439190917968752 0.681 9.418940917968753 0.651 Q 9.398690917968752 0.621 9.385940917968751 0.6075 Q 9.373190917968753 0.5940000000000001 9.355190917968752 0.5850000000000001 L 9.340190917968751 0.5775000000000001 L 9.340190917968751 0.5715000000000001 Q 9.412190917968752 0.5670000000000001 9.463940917968753 0.54 Q 9.515690917968753 0.513 9.548690917968752 0.47250000000000003 Q 9.581690917968752 0.43200000000000005 9.596690917968752 0.38475000000000004 Q 9.611690917968753 0.3375 9.611690917968753 0.2925000000000001 Q 9.611690917968753 0.252 9.595940917968752 0.20400000000000007 Q 9.580190917968752 0.15600000000000003 9.541940917968752 0.11475000000000002 Q 9.503690917968752 0.07350000000000001 9.437690917968752 0.04574999999999996 Q 9.371690917968753 0.018000000000000016 9.271190917968752 0.018000000000000016 L 8.930690917968752 0.018000000000000016 Z M 9.067190917968752 0.08400000000000007 L 9.218690917968752 0.08400000000000007 Q 9.275690917968753 0.08400000000000007 9.321440917968753 0.10050000000000003 Q 9.367190917968752 0.11699999999999999 9.400190917968752 0.14625 Q 9.433190917968751 0.1755 9.450440917968752 0.21600000000000008 Q 9.467690917968753 0.25650000000000006 9.467690917968753 0.3045 Q 9.467690917968753 0.3450000000000001 9.451940917968752 0.3862500000000001 Q 9.436190917968752 0.4275000000000001 9.404690917968752 0.46125000000000005 Q 9.373190917968753 0.495 9.327440917968753 0.516 Q 9.281690917968753 0.537 9.221690917968752 0.537 L 9.067190917968752 0.537 L 9.067190917968752 0.08400000000000007 Z M 10.022625732421877 1.068 L 10.159125732421877 1.068 L 10.159125732421877 0.6990000000000001 L 10.328625732421878 0.5175000000000001 L 10.727625732421878 1.068 L 10.883625732421878 1.068 L 10.415625732421878 0.4245000000000001 L 10.796625732421878 0.018000000000000016 L 10.721625732421877 0.018000000000000016 L 10.159125732421877 0.609 L 10.159125732421877 0.018000000000000016 L 10.022625732421877 0.018000000000000016 L 10.022625732421877 1.068 Z" fill="#000000" fill-rule="nonzero"></path></g><g><path d=" M 0.12787500000000002 2.0656125 Q 0.0885 2.0476125 0.066 2.0153624999999997 Q 0.043500000000000004 1.9831124999999998 0.042 1.9433624999999999 L 0.0975 1.9433624999999999 Q 0.10125 1.9816124999999998 0.13125 2.0104875 Q 0.16125 2.0393624999999997 0.219 2.0393624999999997 Q 0.27225 2.0393624999999997 0.303375 2.0119875 Q 0.3345 1.9846125 0.3345 1.9426124999999999 Q 0.3345 1.9088625 0.31725000000000003 1.8882374999999998 Q 0.3 1.8676125 0.2745 1.8574875 Q 0.249 1.8473624999999998 0.20400000000000001 1.8353625 Q 0.1515 1.8211125 0.12075 1.8076124999999998 Q 0.09 1.7941124999999998 0.06825 1.7656124999999998 Q 0.0465 1.7371124999999998 0.0465 1.6883624999999998 Q 0.0465 1.6478625 0.0675 1.6159875 Q 0.0885 1.5841124999999998 0.12675 1.5661125 Q 0.165 1.5481124999999998 0.2145 1.5481124999999998 Q 0.28725 1.5481124999999998 0.33187500000000003 1.5837374999999998 Q 0.3765 1.6193624999999998 0.38325000000000004 1.6756125 L 0.32625 1.6756125 Q 0.321 1.6433624999999998 0.291 1.6182374999999998 Q 0.261 1.5931125 0.21 1.5931125 Q 0.16275 1.5931125 0.13125 1.6182374999999998 Q 0.09975 1.6433624999999998 0.09975 1.6868625 Q 0.09975 1.7198624999999998 0.117 1.7401125 Q 0.13425 1.7603624999999998 0.160125 1.7708624999999998 Q 0.186 1.7813625 0.23025 1.7933624999999997 Q 0.28125 1.8076124999999998 0.31275000000000003 1.8214875 Q 0.34425 1.8353625 0.366 1.8638625 Q 0.38775 1.8923625 0.38775 1.9403625 Q 0.38775 1.9771124999999998 0.36825 2.0101125 Q 0.34875 2.0431125 0.3105 2.0633624999999998 Q 0.27225 2.0836125 0.219 2.0836125 Q 0.16725 2.0836125 0.12787500000000002 2.0656125 Z M 0.7762203369140626 2.0783625 L 0.5489703369140625 1.8361124999999998 L 0.5489703369140625 2.0783625 L 0.4964703369140625 2.0783625 L 0.4964703369140625 1.5541125 L 0.5489703369140625 1.5541125 L 0.5489703369140625 1.7993625 L 0.7762203369140626 1.5541125 L 0.8429703369140625 1.5541125 L 0.5977203369140625 1.8158625 L 0.8452203369140625 2.0783625 L 0.7762203369140626 2.0783625 Z M 0.9824652099609376 1.5541125 L 0.9824652099609376 2.0783625 L 0.9299652099609375 2.0783625 L 0.9299652099609375 1.5541125 L 0.9824652099609376 1.5541125 Z M 1.16167236328125 2.0356125 L 1.34992236328125 2.0356125 L 1.34992236328125 2.0783625 L 1.10917236328125 2.0783625 L 1.10917236328125 1.5541125 L 1.16167236328125 1.5541125 L 1.16167236328125 2.0356125 Z M 1.4848919677734376 2.0356125 L 1.6731419677734376 2.0356125 L 1.6731419677734376 2.0783625 L 1.4323919677734376 2.0783625 L 1.4323919677734376 1.5541125 L 1.4848919677734376 1.5541125 L 1.4848919677734376 2.0356125 Z M 1.823486572265625 2.0656125 Q 1.7841115722656251 2.0476125 1.7616115722656251 2.0153624999999997 Q 1.7391115722656252 1.9831124999999998 1.7376115722656251 1.9433624999999999 L 1.793111572265625 1.9433624999999999 Q 1.7968615722656252 1.9816124999999998 1.8268615722656252 2.0104875 Q 1.856861572265625 2.0393624999999997 1.9146115722656252 2.0393624999999997 Q 1.9678615722656252 2.0393624999999997 1.998986572265625 2.0119875 Q 2.030111572265625 1.9846125 2.030111572265625 1.9426124999999999 Q 2.030111572265625 1.9088625 2.012861572265625 1.8882374999999998 Q 1.9956115722656251 1.8676125 1.970111572265625 1.8574875 Q 1.9446115722656252 1.8473624999999998 1.899611572265625 1.8353625 Q 1.847111572265625 1.8211125 1.816361572265625 1.8076124999999998 Q 1.7856115722656252 1.7941124999999998 1.763861572265625 1.7656124999999998 Q 1.742111572265625 1.7371124999999998 1.742111572265625 1.6883624999999998 Q 1.742111572265625 1.6478625 1.763111572265625 1.6159875 Q 1.7841115722656251 1.5841124999999998 1.822361572265625 1.5661125 Q 1.8606115722656251 1.5481124999999998 1.910111572265625 1.5481124999999998 Q 1.982861572265625 1.5481124999999998 2.0274865722656252 1.5837374999999998 Q 2.072111572265625 1.6193624999999998 2.078861572265625 1.6756125 L 2.021861572265625 1.6756125 Q 2.0166115722656253 1.6433624999999998 1.986611572265625 1.6182374999999998 Q 1.9566115722656252 1.5931125 1.905611572265625 1.5931125 Q 1.858361572265625 1.5931125 1.8268615722656252 1.6182374999999998 Q 1.795361572265625 1.6433624999999998 1.795361572265625 1.6868625 Q 1.795361572265625 1.7198624999999998 1.812611572265625 1.7401125 Q 1.829861572265625 1.7603624999999998 1.8557365722656252 1.7708624999999998 Q 1.881611572265625 1.7813625 1.9258615722656252 1.7933624999999997 Q 1.976861572265625 1.8076124999999998 2.008361572265625 1.8214875 Q 2.0398615722656253 1.8353625 2.061611572265625 1.8638625 Q 2.083361572265625 1.8923625 2.083361572265625 1.9403625 Q 2.083361572265625 1.9771124999999998 2.0638615722656253 2.0101125 Q 2.044361572265625 2.0431125 2.006111572265625 2.0633624999999998 Q 1.9678615722656252 2.0836125 1.9146115722656252 2.0836125 Q 1.8628615722656252 2.0836125 1.823486572265625 2.0656125 Z M 2.4575720214843746 1.5541125 L 2.4575720214843746 2.0783625 L 2.405072021484375 2.0783625 L 2.405072021484375 1.5541125 L 2.4575720214843746 1.5541125 Z M 2.979529174804687 2.0783625 L 2.9270291748046873 2.0783625 L 2.636779174804687 1.6373624999999998 L 2.636779174804687 2.0783625 L 2.584279174804687 2.0783625 L 2.584279174804687 1.5541125 L 2.636779174804687 1.5541125 L 2.9270291748046873 1.9943624999999998 L 2.9270291748046873 1.5541125 L 2.979529174804687 1.5541125 L 2.979529174804687 2.0783625 Z M 3.413009765625 1.5541125 L 3.413009765625 1.5976124999999999 L 3.267509765625 1.5976124999999999 L 3.267509765625 2.0783625 L 3.215009765625 2.0783625 L 3.215009765625 1.5976124999999999 L 3.068759765625 1.5976124999999999 L 3.068759765625 1.5541125 L 3.413009765625 1.5541125 Z M 3.607228637695312 2.0494874999999997 Q 3.547978637695312 2.0153624999999997 3.5138536376953122 1.9542374999999998 Q 3.4797286376953123 1.8931125 3.4797286376953123 1.8158625 Q 3.4797286376953123 1.7386125 3.5138536376953122 1.6774874999999998 Q 3.547978637695312 1.6163625 3.607228637695312 1.5822375 Q 3.6664786376953122 1.5481124999999998 3.7392286376953123 1.5481124999999998 Q 3.8127286376953125 1.5481124999999998 3.871978637695312 1.5822375 Q 3.931228637695312 1.6163625 3.964978637695312 1.6774874999999998 Q 3.9987286376953124 1.7386125 3.9987286376953124 1.8158625 Q 3.9987286376953124 1.8931125 3.964978637695312 1.9542374999999998 Q 3.931228637695312 2.0153624999999997 3.871978637695312 2.0494874999999997 Q 3.8127286376953125 2.0836125 3.7392286376953123 2.0836125 Q 3.6664786376953122 2.0836125 3.607228637695312 2.0494874999999997 Z M 3.8442286376953123 2.0108625 Q 3.8907286376953123 1.9838624999999999 3.9177286376953124 1.9332375 Q 3.944728637695312 1.8826124999999998 3.944728637695312 1.8158625 Q 3.944728637695312 1.7491124999999998 3.9177286376953124 1.6988625 Q 3.8907286376953123 1.6486124999999998 3.8442286376953123 1.6216125 Q 3.7977286376953123 1.5946124999999998 3.7392286376953123 1.5946124999999998 Q 3.6807286376953123 1.5946124999999998 3.6342286376953123 1.6216125 Q 3.5877286376953124 1.6486124999999998 3.5607286376953122 1.6988625 Q 3.533728637695312 1.7491124999999998 3.533728637695312 1.8158625 Q 3.533728637695312 1.8826124999999998 3.5607286376953122 1.9332375 Q 3.5877286376953124 1.9838624999999999 3.6342286376953123 2.0108625 Q 3.6807286376953123 2.0378624999999997 3.7392286376953123 2.0378624999999997 Q 3.7977286376953123 2.0378624999999997 3.8442286376953123 2.0108625 Z M 4.367691650390625 1.5968624999999999 L 4.367691650390625 1.7926125 L 4.566441650390625 1.7926125 L 4.566441650390625 1.8361124999999998 L 4.367691650390625 1.8361124999999998 L 4.367691650390625 2.0348625 L 4.588941650390625 2.0348625 L 4.588941650390625 2.0783625 L 4.3151916503906245 2.0783625 L 4.3151916503906245 1.5533625 L 4.588941650390625 1.5533625 L 4.588941650390625 1.5968624999999999 L 4.367691650390625 1.5968624999999999 Z M 4.888934692382812 1.8166125 L 5.047934692382813 2.0783625 L 4.989434692382813 2.0783625 L 4.855934692382813 1.8593624999999998 L 4.7291846923828125 2.0783625 L 4.670684692382813 2.0783625 L 4.828934692382813 1.8143624999999999 L 4.670684692382813 1.5541125 L 4.7291846923828125 1.5541125 L 4.861934692382813 1.7723624999999998 L 4.990184692382813 1.5541125 L 5.048684692382813 1.5541125 L 4.888934692382812 1.8166125 Z M 5.437155395507813 1.8136124999999998 Q 5.392905395507813 1.8548624999999999 5.304405395507813 1.8548624999999999 L 5.198655395507813 1.8548624999999999 L 5.198655395507813 2.0783625 L 5.1461553955078125 2.0783625 L 5.1461553955078125 1.5541125 L 5.304405395507813 1.5541125 Q 5.392155395507813 1.5541125 5.436780395507813 1.5953624999999998 Q 5.481405395507813 1.6366124999999998 5.481405395507813 1.7048625 Q 5.481405395507813 1.7723624999999998 5.437155395507813 1.8136124999999998 Z M 5.4274053955078125 1.7048625 Q 5.4274053955078125 1.6523625 5.398155395507813 1.6253624999999998 Q 5.368905395507813 1.5983625 5.304405395507813 1.5983625 L 5.198655395507813 1.5983625 L 5.198655395507813 1.8098625 L 5.304405395507813 1.8098625 Q 5.4274053955078125 1.8098625 5.4274053955078125 1.7048625 Z M 5.629129028320313 1.5968624999999999 L 5.629129028320313 1.7926125 L 5.8278790283203135 1.7926125 L 5.8278790283203135 1.8361124999999998 L 5.629129028320313 1.8361124999999998 L 5.629129028320313 2.0348625 L 5.850379028320313 2.0348625 L 5.850379028320313 2.0783625 L 5.576629028320313 2.0783625 L 5.576629028320313 1.5533625 L 5.850379028320313 1.5533625 L 5.850379028320313 1.5968624999999999 L 5.629129028320313 1.5968624999999999 Z M 6.240372070312501 2.0783625 L 6.110622070312501 1.8593624999999998 L 6.013872070312501 1.8593624999999998 L 6.013872070312501 2.0783625 L 5.961372070312501 2.0783625 L 5.961372070312501 1.5541125 L 6.118872070312501 1.5541125 Q 6.206622070312501 1.5541125 6.251997070312501 1.5961124999999998 Q 6.297372070312501 1.6381124999999999 6.297372070312501 1.7063625 Q 6.297372070312501 1.7633625 6.2647470703125006 1.8034875 Q 6.232122070312501 1.8436124999999999 6.168372070312501 1.8556124999999999 L 6.303372070312501 2.0783625 L 6.240372070312501 2.0783625 Z M 6.013872070312501 1.8166125 L 6.119622070312501 1.8166125 Q 6.181122070312501 1.8166125 6.212247070312501 1.7866125 Q 6.243372070312501 1.7566125 6.243372070312501 1.7063625 Q 6.243372070312501 1.6546124999999998 6.213372070312501 1.6264874999999999 Q 6.183372070312501 1.5983625 6.118872070312501 1.5983625 L 6.013872070312501 1.5983625 L 6.013872070312501 1.8166125 Z M 6.461603393554689 1.5541125 L 6.461603393554689 2.0783625 L 6.409103393554688 2.0783625 L 6.409103393554688 1.5541125 L 6.461603393554689 1.5541125 Z M 6.640810546875001 1.5968624999999999 L 6.640810546875001 1.7926125 L 6.839560546875002 1.7926125 L 6.839560546875002 1.8361124999999998 L 6.640810546875001 1.8361124999999998 L 6.640810546875001 2.0348625 L 6.862060546875002 2.0348625 L 6.862060546875002 2.0783625 L 6.588310546875001 2.0783625 L 6.588310546875001 1.5533625 L 6.862060546875002 1.5533625 L 6.862060546875002 1.5968624999999999 L 6.640810546875001 1.5968624999999999 Z M 7.36830358886719 2.0783625 L 7.3158035888671895 2.0783625 L 7.025553588867189 1.6373624999999998 L 7.025553588867189 2.0783625 L 6.973053588867189 2.0783625 L 6.973053588867189 1.5541125 L 7.025553588867189 1.5541125 L 7.3158035888671895 1.9943624999999998 L 7.3158035888671895 1.5541125 L 7.36830358886719 1.5541125 L 7.36830358886719 2.0783625 Z M 7.504784179687502 1.6774874999999998 Q 7.5385341796875025 1.6163625 7.597034179687502 1.5822375 Q 7.6555341796875025 1.5481124999999998 7.727534179687503 1.5481124999999998 Q 7.815284179687502 1.5481124999999998 7.877909179687502 1.5897374999999998 Q 7.940534179687502 1.6313624999999998 7.969034179687502 1.7071124999999998 L 7.907534179687502 1.7071124999999998 Q 7.885034179687502 1.6538624999999998 7.838909179687502 1.6238625 Q 7.792784179687502 1.5938625 7.727534179687503 1.5938625 Q 7.669784179687502 1.5938625 7.623659179687502 1.6208624999999999 Q 7.577534179687502 1.6478625 7.551284179687502 1.6984875 Q 7.525034179687502 1.7491124999999998 7.525034179687502 1.8158625 Q 7.525034179687502 1.8826124999999998 7.551284179687502 1.9328625 Q 7.577534179687502 1.9831124999999998 7.623659179687502 2.0101125 Q 7.669784179687502 2.0371125 7.727534179687503 2.0371125 Q 7.792784179687502 2.0371125 7.838909179687502 2.0074875 Q 7.885034179687502 1.9778624999999999 7.907534179687502 1.9253624999999999 L 7.969034179687502 1.9253624999999999 Q 7.940534179687502 2.0003625 7.877534179687502 2.0416125 Q 7.814534179687502 2.0828625 7.727534179687503 2.0828625 Q 7.6555341796875025 2.0828625 7.597034179687502 2.0487375 Q 7.5385341796875025 2.0146124999999997 7.504784179687502 1.9538624999999998 Q 7.471034179687502 1.8931125 7.471034179687502 1.8158625 Q 7.471034179687502 1.7386125 7.504784179687502 1.6774874999999998 Z M 8.133281250000003 1.5968624999999999 L 8.133281250000003 1.7926125 L 8.332031250000002 1.7926125 L 8.332031250000002 1.8361124999999998 L 8.133281250000003 1.8361124999999998 L 8.133281250000003 2.0348625 L 8.354531250000003 2.0348625 L 8.354531250000003 2.0783625 L 8.080781250000003 2.0783625 L 8.080781250000003 1.5533625 L 8.354531250000003 1.5533625 L 8.354531250000003 1.5968624999999999 L 8.133281250000003 1.5968624999999999 Z" fill="#3361e1" fill-rule="nonzero"></path></g><g clip-path="url(&quot;#SvgjsClipPath1010&quot;)"><g clip-path="url(&quot;#SvgjsClipPath1008&quot;)"><path d=" M -2.266129610090798 0.47568016722599527 L -1.9304810419959688 0.6692990755767129 L -1.3544010992222053 0.3368350290008096 L -0.7783211564484416 0.6692990755767129 L -0.44299104050550464 0.47568016722599527 L -1.3544010992222053 -0.05072123985251831 L -2.266129610090798 0.47568016722599527 Z" fill="#51a8db" transform="matrix(1,0,0,1,0,0)" fill-rule="evenodd"></path></g><g clip-path="url(&quot;#SvgjsClipPath1008&quot;)"><path d=" M -0.40000000000000013 0.5501979707688701 L -0.7353301159429373 0.7438168791195878 L -0.7353301159429373 1.4090634244232867 L -1.3114100587167006 1.7415274709991904 L -1.3114100587167006 2.1290837398525184 L -0.40000000000000013 1.6030007849258971 L -0.40000000000000013 0.5501979707688701 Z" fill="#000000" transform="matrix(1,0,0,1,0,0)" fill-rule="evenodd"></path></g><g clip-path="url(&quot;#SvgjsClipPath1008&quot;)"><path d=" M -1.3977105918796027 2.1290837398525184 L -1.3977105918796027 1.7415274709991904 L -1.9741089868052588 1.4090634244232867 L -1.9741089868052588 0.7438168791195878 L -2.309120650596303 0.5501979707688701 L -2.309120650596303 1.6030007849258971 L -1.3977105918796027 2.1290837398525184 Z" fill="#3361e1" transform="matrix(1,0,0,1,0,0)" fill-rule="evenodd"></path></g></g></g><defs><clipPath id="SvgjsClipPath1010"><path d=" M -2.309120650596303 -0.05072123985251831 h 1.909120650596303 v 2.1798049797050365 h -1.909120650596303 Z"></path></clipPath><clipPath id="SvgjsClipPath1008"><path d=" M -2.309120650596303 -0.05072123985251831 L -0.40000000000000013 -0.05072123985251831 L -0.40000000000000013 2.1290837398525184 L -2.309120650596303 2.1290837398525184 Z"></path></clipPath></defs></svg>